<svg width="20" height="16" viewBox="0 0 20 16" fill="none" xmlns="http://www.w3.org/2000/svg">
<path d="M7.70406 0.45508L0.954061 7.20508C0.849182 7.3096 0.765966 7.43379 0.709186 7.57053C0.652405 7.70728 0.623175 7.85389 0.623175 8.00196C0.623175 8.15002 0.652405 8.29663 0.709186 8.43338C0.765966 8.57012 0.849182 8.69431 0.954061 8.79883L7.70406 15.5488C7.91541 15.7602 8.20205 15.8789 8.50094 15.8789C8.79982 15.8789 9.08647 15.7602 9.29781 15.5488C9.50916 15.3375 9.62789 15.0508 9.62789 14.752C9.62789 14.4531 9.50916 14.1664 9.29781 13.9551L4.46875 9.12602L18.25 9.12602C18.5484 9.12602 18.8345 9.00749 19.0455 8.79651C19.2565 8.58553 19.375 8.29939 19.375 8.00102C19.375 7.70265 19.2565 7.4165 19.0455 7.20552C18.8345 6.99454 18.5484 6.87602 18.25 6.87602L4.46875 6.87602L9.29875 2.04696C9.51009 1.83561 9.62883 1.54897 9.62883 1.25008C9.62883 0.951195 9.51009 0.664551 9.29875 0.453206C9.08741 0.241861 8.80076 0.123127 8.50187 0.123127C8.20299 0.123127 7.91634 0.241861 7.705 0.453206L7.70406 0.45508Z" fill="black"/>
</svg>
