<svg width="19" height="16" viewBox="0 0 19 16" fill="none" xmlns="http://www.w3.org/2000/svg">
<path d="M11.7959 0.45508L18.5459 7.20508C18.6508 7.3096 18.734 7.43379 18.7908 7.57053C18.8476 7.70728 18.8768 7.85389 18.8768 8.00196C18.8768 8.15002 18.8476 8.29663 18.7908 8.43338C18.734 8.57012 18.6508 8.69431 18.5459 8.79883L11.7959 15.5488C11.5846 15.7602 11.2979 15.8789 10.9991 15.8789C10.7002 15.8789 10.4135 15.7602 10.2022 15.5488C9.99084 15.3375 9.87211 15.0508 9.87211 14.752C9.87211 14.4531 9.99084 14.1664 10.2022 13.9551L15.0313 9.12602L1.25 9.12602C0.951632 9.12602 0.665483 9.00749 0.454505 8.79651C0.243527 8.58553 0.125 8.29939 0.125 8.00102C0.125 7.70265 0.243527 7.4165 0.454505 7.20552C0.665483 6.99454 0.951632 6.87602 1.25 6.87602L15.0313 6.87602L10.2013 2.04696C9.98991 1.83561 9.87117 1.54897 9.87117 1.25008C9.87117 0.951195 9.98991 0.664551 10.2013 0.453206C10.4126 0.241861 10.6992 0.123127 10.9981 0.123127C11.297 0.123127 11.5837 0.241861 11.795 0.453206L11.7959 0.45508Z" fill="white"/>
</svg>
