<svg width="20" height="21" viewBox="0 0 20 21" fill="none" xmlns="http://www.w3.org/2000/svg">
<path d="M10 0.828125C8.07164 0.828125 6.18657 1.39995 4.58319 2.4713C2.97982 3.54264 1.73013 5.06538 0.992179 6.84696C0.254224 8.62854 0.061142 10.5889 0.437348 12.4803C0.813554 14.3716 1.74215 16.1089 3.10571 17.4724C4.46928 18.836 6.20656 19.7646 8.09787 20.1408C9.98919 20.517 11.9496 20.3239 13.7312 19.5859C15.5127 18.848 17.0355 17.5983 18.1068 15.9949C19.1782 14.3916 19.75 12.5065 19.75 10.5781C19.7473 7.9931 18.7192 5.51474 16.8913 3.68685C15.0634 1.85896 12.585 0.830855 10 0.828125ZM14.2806 8.85875L9.03063 14.1088C8.96097 14.1785 8.87826 14.2338 8.78721 14.2715C8.69616 14.3093 8.59857 14.3287 8.5 14.3287C8.40144 14.3287 8.30385 14.3093 8.2128 14.2715C8.12175 14.2338 8.03903 14.1785 7.96938 14.1088L5.71938 11.8588C5.57865 11.718 5.49959 11.5271 5.49959 11.3281C5.49959 11.1291 5.57865 10.9382 5.71938 10.7975C5.86011 10.6568 6.05098 10.5777 6.25 10.5777C6.44903 10.5777 6.6399 10.6568 6.78063 10.7975L8.5 12.5178L13.2194 7.7975C13.2891 7.72782 13.3718 7.67254 13.4628 7.63483C13.5539 7.59712 13.6515 7.57771 13.75 7.57771C13.8485 7.57771 13.9461 7.59712 14.0372 7.63483C14.1282 7.67254 14.2109 7.72782 14.2806 7.7975C14.3503 7.86718 14.4056 7.94991 14.4433 8.04095C14.481 8.132 14.5004 8.22958 14.5004 8.32812C14.5004 8.42667 14.481 8.52425 14.4433 8.6153C14.4056 8.70634 14.3503 8.78907 14.2806 8.85875Z" fill="#01AB31"/>
</svg>
