<svg width="66" height="49" viewBox="0 0 66 49" fill="none" xmlns="http://www.w3.org/2000/svg">
<g filter="url(#filter0_dd_991_6604)">
<rect x="9.22852" y="5" width="46.6143" height="30.0304" rx="5.37857" fill="white"/>
<rect x="9.11646" y="4.88795" width="46.8384" height="30.2545" rx="5.49062" stroke="#D6DCE5" stroke-width="0.224107"/>
<path fill-rule="evenodd" clip-rule="evenodd" d="M19.4256 15.6455H16.7381C16.5542 15.6455 16.3978 15.7792 16.3691 15.9606L15.2821 22.8514C15.2605 22.9874 15.3658 23.1099 15.5038 23.1099H16.7868C16.9707 23.1099 17.1271 22.9763 17.1558 22.7944L17.449 20.9359C17.4772 20.7539 17.634 20.6205 17.8176 20.6205H18.6683C20.4387 20.6205 21.4603 19.7638 21.7273 18.0664C21.8475 17.3238 21.7324 16.7403 21.3845 16.3316C21.0026 15.883 20.325 15.6455 19.4256 15.6455ZM19.7356 18.1623C19.5887 19.1265 18.8519 19.1265 18.1394 19.1265H17.7339L18.0184 17.3256C18.0353 17.2169 18.1296 17.1367 18.2396 17.1367H18.4255C18.9108 17.1367 19.3686 17.1367 19.6052 17.4133C19.7462 17.5784 19.7895 17.8235 19.7356 18.1623ZM27.4592 18.1313H26.1722C26.0625 18.1313 25.9678 18.2115 25.9509 18.3205L25.8939 18.6803L25.8039 18.5499C25.5253 18.1455 24.9041 18.0104 24.284 18.0104C22.8617 18.0104 21.6471 19.0874 21.4105 20.5983C21.2876 21.3518 21.4623 22.0724 21.8899 22.575C22.2821 23.037 22.8433 23.2296 23.5109 23.2296C24.6568 23.2296 25.2924 22.4928 25.2924 22.4928L25.2349 22.8505C25.2133 22.9872 25.3185 23.1097 25.4557 23.1097H26.615C26.7994 23.1097 26.9549 22.9761 26.984 22.7943L27.6796 18.3899C27.7016 18.2544 27.5966 18.1313 27.4592 18.1313ZM25.6652 20.6359C25.541 21.3711 24.9574 21.8646 24.2132 21.8646C23.8395 21.8646 23.5407 21.7447 23.3491 21.5176C23.1588 21.2921 23.0865 20.971 23.147 20.6135C23.2631 19.8846 23.8564 19.3751 24.5893 19.3751C24.9547 19.3751 25.2518 19.4964 25.4475 19.7255C25.6435 19.9569 25.7214 20.2799 25.6652 20.6359ZM33.0201 18.1312H34.3134C34.4945 18.1312 34.6002 18.3343 34.4973 18.4828L30.1959 24.691C30.1262 24.7915 30.0115 24.8513 29.8889 24.8513H28.5972C28.4153 24.8513 28.3091 24.6466 28.4144 24.4977L29.7538 22.6073L28.3293 18.4274C28.28 18.2821 28.3873 18.1312 28.5419 18.1312H29.8127C29.9778 18.1312 30.1235 18.2395 30.1711 18.3975L30.9271 20.9221L32.7109 18.295C32.7807 18.1924 32.8968 18.1312 33.0201 18.1312Z" fill="#253B80"/>
<path fill-rule="evenodd" clip-rule="evenodd" d="M47.0426 22.8507L48.1456 15.834C48.1625 15.7251 48.2569 15.6449 48.3665 15.6445H49.6082C49.7453 15.6445 49.8506 15.7674 49.829 15.9035L48.7413 22.7938C48.713 22.9757 48.5566 23.1093 48.3723 23.1093H47.2634C47.1263 23.1093 47.021 22.9868 47.0426 22.8507ZM38.5957 15.6449H35.9077C35.7242 15.6449 35.5678 15.7785 35.5391 15.96L34.4521 22.8507C34.4305 22.9868 34.5358 23.1093 34.6731 23.1093H36.0523C36.1805 23.1093 36.2901 23.0158 36.3101 22.8886L36.6186 20.9353C36.6469 20.7533 36.8037 20.6198 36.9872 20.6198H37.8375C39.6082 20.6198 40.6297 19.7632 40.8969 18.0658C41.0174 17.3232 40.9016 16.7397 40.5539 16.3309C40.1722 15.8824 39.4951 15.6449 38.5957 15.6449ZM38.9057 18.1616C38.7592 19.1259 38.0223 19.1259 37.3094 19.1259H36.9043L37.1892 17.325C37.2061 17.2163 37.2996 17.1361 37.41 17.1361H37.5958C38.0809 17.1361 38.5391 17.1361 38.7755 17.4127C38.9167 17.5778 38.9596 17.8229 38.9057 18.1616ZM46.6285 18.1307H45.3425C45.2319 18.1307 45.1381 18.2109 45.1215 18.3198L45.0646 18.6797L44.9742 18.5493C44.6956 18.1449 44.0748 18.0098 43.4546 18.0098C42.0324 18.0098 40.8181 19.0868 40.5815 20.5977C40.459 21.3512 40.633 22.0718 41.0605 22.5744C41.4535 23.0364 42.014 23.229 42.6816 23.229C43.8274 23.229 44.4628 22.4922 44.4628 22.4922L44.4056 22.8498C44.3839 22.9866 44.4892 23.1091 44.6272 23.1091H45.786C45.9695 23.1091 46.1259 22.9755 46.1546 22.7936L46.8506 18.3893C46.8719 18.2538 46.7666 18.1307 46.6285 18.1307ZM44.8347 20.6353C44.7113 21.3704 44.127 21.8639 43.3826 21.8639C43.0096 21.8639 42.7103 21.7441 42.5185 21.517C42.3282 21.2915 42.2568 20.9704 42.3166 20.6129C42.4332 19.884 43.0258 19.3745 43.7587 19.3745C44.1242 19.3745 44.4212 19.4957 44.6171 19.7249C44.8138 19.9563 44.8917 20.2793 44.8347 20.6353Z" fill="#179BD7"/>
</g>
<defs>
<filter id="filter0_dd_991_6604" x="0.0396204" y="0.295201" width="64.9911" height="48.4051" filterUnits="userSpaceOnUse" color-interpolation-filters="sRGB">
<feFlood flood-opacity="0" result="BackgroundImageFix"/>
<feColorMatrix in="SourceAlpha" type="matrix" values="0 0 0 0 0 0 0 0 0 0 0 0 0 0 0 0 0 0 127 0" result="hardAlpha"/>
<feOffset dy="0.448214"/>
<feGaussianBlur stdDeviation="2.24107"/>
<feColorMatrix type="matrix" values="0 0 0 0 0.717647 0 0 0 0 0.717647 0 0 0 0 0.717647 0 0 0 0.08 0"/>
<feBlend mode="normal" in2="BackgroundImageFix" result="effect1_dropShadow_991_6604"/>
<feColorMatrix in="SourceAlpha" type="matrix" values="0 0 0 0 0 0 0 0 0 0 0 0 0 0 0 0 0 0 127 0" result="hardAlpha"/>
<feOffset dy="4.48214"/>
<feGaussianBlur stdDeviation="4.48214"/>
<feColorMatrix type="matrix" values="0 0 0 0 0.717647 0 0 0 0 0.717647 0 0 0 0 0.717647 0 0 0 0.08 0"/>
<feBlend mode="normal" in2="effect1_dropShadow_991_6604" result="effect2_dropShadow_991_6604"/>
<feBlend mode="normal" in="SourceGraphic" in2="effect2_dropShadow_991_6604" result="shape"/>
</filter>
</defs>
</svg>
