<svg width="66" height="49" viewBox="0 0 66 49" fill="none" xmlns="http://www.w3.org/2000/svg">
<g filter="url(#filter0_dd_991_6608)">
<rect x="9.45703" y="5" width="46.6143" height="30.0304" rx="5.37857" fill="white"/>
<rect x="9.34498" y="4.88795" width="46.8384" height="30.2545" rx="5.49062" stroke="#D6DCE5" stroke-width="0.224107"/>
<path d="M31.7514 23.6128H30.703V15.4546H33.4825C34.1869 15.4546 34.7876 15.6894 35.279 16.159C35.7814 16.6286 36.0326 17.202 36.0326 17.8791C36.0326 18.5726 35.7814 19.146 35.279 19.6102C34.793 20.0743 34.1924 20.3037 33.4825 20.3037H31.7514V23.6128ZM31.7514 16.4594V19.3044H33.5043C33.9193 19.3044 34.2688 19.1624 34.5418 18.8839C34.8203 18.6054 34.9623 18.2668 34.9623 17.8846C34.9623 17.5078 34.8203 17.1747 34.5418 16.8962C34.2688 16.6068 33.9248 16.4648 33.5043 16.4648H31.7514V16.4594Z" fill="#3C4043"/>
<path d="M38.7737 17.8464C39.5491 17.8464 40.1607 18.0539 40.6085 18.4689C41.0563 18.8839 41.2802 19.4518 41.2802 20.1726V23.6128H40.2809V22.8374H40.2372C39.8058 23.4763 39.227 23.793 38.5062 23.793C37.8891 23.793 37.3758 23.6128 36.9608 23.247C36.5458 22.8811 36.3383 22.4279 36.3383 21.8818C36.3383 21.303 36.5567 20.8443 36.9936 20.5057C37.4304 20.1617 38.0147 19.9924 38.741 19.9924C39.3635 19.9924 39.8768 20.1071 40.2754 20.3364V20.0962C40.2754 19.7303 40.1334 19.4245 39.844 19.1678C39.5546 18.9112 39.216 18.7856 38.8283 18.7856C38.2441 18.7856 37.7799 19.0313 37.4413 19.5283L36.5185 18.9494C37.0263 18.2122 37.7799 17.8464 38.7737 17.8464ZM37.4195 21.8982C37.4195 22.1712 37.5342 22.4006 37.769 22.5808C37.9983 22.761 38.2714 22.8538 38.5826 22.8538C39.0249 22.8538 39.4181 22.69 39.7621 22.3623C40.1061 22.0347 40.2809 21.6525 40.2809 21.2101C39.9532 20.9535 39.5 20.8224 38.9157 20.8224C38.4898 20.8224 38.1348 20.9262 37.8509 21.1282C37.5615 21.3412 37.4195 21.5978 37.4195 21.8982Z" fill="#3C4043"/>
<path d="M46.9811 18.0266L43.4863 26.0647H42.4051L43.7048 23.2525L41.4004 18.0266H42.5416L44.2017 22.0348H44.2235L45.8399 18.0266H46.9811Z" fill="#3C4043"/>
<path d="M27.5811 19.6429C27.5811 19.3011 27.5505 18.974 27.4937 18.6595H23.099V20.4615L25.63 20.462C25.5273 21.0616 25.197 21.5727 24.6908 21.9135V23.0826H26.1974C27.0771 22.2684 27.5811 21.0649 27.5811 19.6429Z" fill="#4285F4"/>
<path d="M24.6913 21.9135C24.2719 22.1964 23.7319 22.3619 23.1001 22.3619C21.8796 22.3619 20.8443 21.5395 20.4735 20.431H18.9194V21.6367C19.6893 23.1646 21.2718 24.213 23.1001 24.213C24.3637 24.213 25.4252 23.7975 26.1979 23.0821L24.6913 21.9135Z" fill="#34A853"/>
<path d="M20.3271 19.5364C20.3271 19.2252 20.379 18.9243 20.4734 18.6414V17.4357H18.9193C18.601 18.0675 18.4219 18.7807 18.4219 19.5364C18.4219 20.2922 18.6015 21.0054 18.9193 21.6372L20.4734 20.4314C20.379 20.1486 20.3271 19.8477 20.3271 19.5364Z" fill="#FABB05"/>
<path d="M23.1001 16.7105C23.7897 16.7105 24.4073 16.9481 24.895 17.4122L26.2301 16.0782C25.4192 15.323 24.362 14.8594 23.1001 14.8594C21.2724 14.8594 19.6893 15.9078 18.9193 17.4357L20.4734 18.6414C20.8442 17.5329 21.8796 16.7105 23.1001 16.7105Z" fill="#E94235"/>
</g>
<defs>
<filter id="filter0_dd_991_6608" x="0.268136" y="0.295201" width="64.9911" height="48.4051" filterUnits="userSpaceOnUse" color-interpolation-filters="sRGB">
<feFlood flood-opacity="0" result="BackgroundImageFix"/>
<feColorMatrix in="SourceAlpha" type="matrix" values="0 0 0 0 0 0 0 0 0 0 0 0 0 0 0 0 0 0 127 0" result="hardAlpha"/>
<feOffset dy="0.448214"/>
<feGaussianBlur stdDeviation="2.24107"/>
<feColorMatrix type="matrix" values="0 0 0 0 0.717647 0 0 0 0 0.717647 0 0 0 0 0.717647 0 0 0 0.08 0"/>
<feBlend mode="normal" in2="BackgroundImageFix" result="effect1_dropShadow_991_6608"/>
<feColorMatrix in="SourceAlpha" type="matrix" values="0 0 0 0 0 0 0 0 0 0 0 0 0 0 0 0 0 0 127 0" result="hardAlpha"/>
<feOffset dy="4.48214"/>
<feGaussianBlur stdDeviation="4.48214"/>
<feColorMatrix type="matrix" values="0 0 0 0 0.717647 0 0 0 0 0.717647 0 0 0 0 0.717647 0 0 0 0.08 0"/>
<feBlend mode="normal" in2="effect1_dropShadow_991_6608" result="effect2_dropShadow_991_6608"/>
<feBlend mode="normal" in="SourceGraphic" in2="effect2_dropShadow_991_6608" result="shape"/>
</filter>
</defs>
</svg>
