<svg width="66" height="49" viewBox="0 0 66 49" fill="none" xmlns="http://www.w3.org/2000/svg">
<g filter="url(#filter0_dd_991_6602)">
<rect x="9.61523" y="5" width="46.6143" height="30.0304" rx="5.37857" fill="white"/>
<rect x="9.50318" y="4.88795" width="46.8384" height="30.2545" rx="5.49062" stroke="#D6DCE5" stroke-width="0.224107"/>
<path d="M36.271 13.8489H29.4077V26.1824H36.271V13.8489Z" fill="#FF5F00"/>
<path d="M29.8435 20.0156C29.8425 18.8278 30.1116 17.6553 30.6307 16.5869C31.1497 15.5185 31.905 14.5822 32.8394 13.8489C31.6823 12.9394 30.2926 12.3737 28.8293 12.2167C27.3659 12.0596 25.8878 12.3174 24.5641 12.9607C23.2403 13.6039 22.1242 14.6066 21.3434 15.8542C20.5625 17.1018 20.1484 18.5438 20.1484 20.0156C20.1484 21.4874 20.5625 22.9295 21.3434 24.1771C22.1242 25.4246 23.2403 26.4273 24.5641 27.0706C25.8878 27.7138 27.3659 27.9716 28.8293 27.8146C30.2926 27.6575 31.6823 27.0919 32.8394 26.1824C31.905 25.449 31.1497 24.5127 30.6307 23.4443C30.1116 22.3759 29.8425 21.2034 29.8435 20.0156Z" fill="#EB001B"/>
<path d="M45.53 20.0156C45.53 21.4874 45.116 22.9295 44.3352 24.177C43.5544 25.4246 42.4383 26.4273 41.1146 27.0706C39.7908 27.7138 38.3128 27.9716 36.8495 27.8146C35.3861 27.6575 33.9965 27.0919 32.8394 26.1824C33.773 25.4483 34.5277 24.5118 35.0466 23.4436C35.5656 22.3754 35.8352 21.2032 35.8352 20.0156C35.8352 18.828 35.5656 17.6559 35.0466 16.5877C34.5277 15.5194 33.773 14.583 32.8394 13.8489C33.9965 12.9394 35.3861 12.3737 36.8495 12.2167C38.3128 12.0596 39.7908 12.3174 41.1146 12.9607C42.4383 13.6039 43.5544 14.6066 44.3352 15.8542C45.116 17.1018 45.53 18.5439 45.53 20.0156Z" fill="#F79E1B"/>
<path d="M44.7816 24.8761V24.6236H44.8835V24.5721H44.6242V24.6236H44.726V24.8761H44.7816ZM45.2851 24.8761V24.5716H45.2056L45.1142 24.781L45.0227 24.5716H44.9432V24.8761H44.9993V24.6464L45.085 24.8444H45.1432L45.229 24.6459V24.8761H45.2851Z" fill="#F79E1B"/>
</g>
<defs>
<filter id="filter0_dd_991_6602" x="0.426339" y="0.295201" width="64.9911" height="48.4051" filterUnits="userSpaceOnUse" color-interpolation-filters="sRGB">
<feFlood flood-opacity="0" result="BackgroundImageFix"/>
<feColorMatrix in="SourceAlpha" type="matrix" values="0 0 0 0 0 0 0 0 0 0 0 0 0 0 0 0 0 0 127 0" result="hardAlpha"/>
<feOffset dy="0.448214"/>
<feGaussianBlur stdDeviation="2.24107"/>
<feColorMatrix type="matrix" values="0 0 0 0 0.717647 0 0 0 0 0.717647 0 0 0 0 0.717647 0 0 0 0.08 0"/>
<feBlend mode="normal" in2="BackgroundImageFix" result="effect1_dropShadow_991_6602"/>
<feColorMatrix in="SourceAlpha" type="matrix" values="0 0 0 0 0 0 0 0 0 0 0 0 0 0 0 0 0 0 127 0" result="hardAlpha"/>
<feOffset dy="4.48214"/>
<feGaussianBlur stdDeviation="4.48214"/>
<feColorMatrix type="matrix" values="0 0 0 0 0.717647 0 0 0 0 0.717647 0 0 0 0 0.717647 0 0 0 0.08 0"/>
<feBlend mode="normal" in2="effect1_dropShadow_991_6602" result="effect2_dropShadow_991_6602"/>
<feBlend mode="normal" in="SourceGraphic" in2="effect2_dropShadow_991_6602" result="shape"/>
</filter>
</defs>
</svg>
