<svg width="22" height="22" viewBox="0 0 22 22" fill="none" xmlns="http://www.w3.org/2000/svg">
<path d="M20.7953 19.2034L16.3431 14.7494C17.678 13.0098 18.3013 10.8276 18.0864 8.64545C17.8715 6.46328 16.8347 4.44454 15.1861 2.99875C13.5376 1.55295 11.4008 0.78837 9.20923 0.860095C7.01768 0.931819 4.93546 1.83448 3.38497 3.38497C1.83448 4.93546 0.931819 7.01768 0.860095 9.20923C0.78837 11.4008 1.55295 13.5376 2.99875 15.1861C4.44454 16.8347 6.46328 17.8715 8.64545 18.0864C10.8276 18.3013 13.0098 17.678 14.7494 16.3431L19.2053 20.8C19.31 20.9047 19.4342 20.9877 19.5709 21.0443C19.7077 21.1009 19.8542 21.1301 20.0022 21.1301C20.1502 21.1301 20.2967 21.1009 20.4335 21.0443C20.5702 20.9877 20.6944 20.9047 20.7991 20.8C20.9037 20.6954 20.9867 20.5711 21.0434 20.4344C21.1 20.2977 21.1291 20.1511 21.1291 20.0031C21.1291 19.8551 21.1 19.7086 21.0434 19.5719C20.9867 19.4351 20.9037 19.3109 20.7991 19.2063L20.7953 19.2034ZM3.12438 9.49938C3.12438 8.23853 3.49827 7.00599 4.19876 5.95762C4.89926 4.90926 5.8949 4.09216 7.05978 3.60965C8.22466 3.12714 9.50646 3.0009 10.7431 3.24688C11.9797 3.49286 13.1156 4.10002 14.0072 4.99158C14.8987 5.88314 15.5059 7.01905 15.7519 8.25568C15.9979 9.49231 15.8716 10.7741 15.3891 11.939C14.9066 13.1039 14.0895 14.0995 13.0411 14.8C11.9928 15.5005 10.7602 15.8744 9.49938 15.8744C7.80916 15.8726 6.18866 15.2004 4.9935 14.0053C3.79833 12.8101 3.12612 11.1896 3.12438 9.49938Z" fill="black" fill-opacity="0.4"/>
</svg>
