<svg width="157" height="34" viewBox="0 0 157 34" fill="none" xmlns="http://www.w3.org/2000/svg">
<path d="M141.795 10.2915L141.503 10.3837C140.369 8.04021 138.75 6.17468 136.645 4.7871C134.572 3.3995 131.964 2.70569 128.823 2.70569C127.074 2.70569 125.406 3.06028 123.819 3.76946C122.231 4.44789 120.839 5.4192 119.64 6.68342C118.474 7.91682 117.535 9.41233 116.822 11.17C116.11 12.9276 115.754 14.8702 115.754 16.9978C115.754 19.1254 116.11 21.0681 116.822 22.8257C117.535 24.5833 118.474 26.0942 119.64 27.3584C120.839 28.5919 122.231 29.5478 123.819 30.2262C125.406 30.9045 127.074 31.2437 128.823 31.2437C131.932 31.2437 134.458 30.7811 136.402 29.8561C138.378 28.9002 140.046 27.451 141.406 25.5084L141.697 25.6006L141.601 28.5608C140.856 29.3008 139.997 29.9638 139.026 30.5496C138.054 31.1046 137.001 31.5826 135.868 31.9835C134.767 32.3535 133.617 32.631 132.418 32.816C131.22 33.032 130.022 33.1401 128.823 33.1401C126.329 33.1401 123.949 32.7546 121.681 31.9837C119.414 31.2128 117.422 30.1336 115.705 28.746C113.989 27.3276 112.628 25.6317 111.624 23.6582C110.62 21.6539 110.118 19.4338 110.118 16.9978C110.118 14.5618 110.62 12.3571 111.624 10.3837C112.628 8.37933 113.989 6.66797 115.705 5.24959C117.422 3.83115 119.414 2.75191 121.681 2.01186C123.949 1.24096 126.329 0.855509 128.823 0.855509C130.022 0.855509 131.22 0.948014 132.418 1.13302C133.617 1.31803 134.767 1.61098 135.868 2.01186C137.001 2.38188 138.054 2.85984 139.026 3.44573C139.997 4.00077 140.856 4.6483 141.601 5.38834L141.795 10.2915ZM34.7344 19.1259C34.3783 19.2799 34.0382 19.4804 33.7142 19.7274C33.3901 19.9739 33.228 20.3131 33.228 20.745V26.4341C31.6734 28.5618 29.6814 30.2115 27.2522 31.3832C24.823 32.5549 22.1347 33.1408 19.1872 33.1408C16.6933 33.1408 14.3127 32.7554 12.0454 31.9845C9.77815 31.2136 7.78621 30.1344 6.06955 28.7468C4.35293 27.3284 2.99257 25.6324 1.98847 23.659C0.984439 21.6547 0.482422 19.4346 0.482422 16.9985C0.482422 14.5625 0.984439 12.3578 1.98847 10.3844C2.99257 8.38009 4.35293 6.66873 6.06955 5.25034C7.78621 3.8319 9.77815 2.75268 12.0454 2.01266C14.3126 1.24173 16.6932 0.856267 19.1872 0.856267C20.3856 0.856267 21.5841 0.948772 22.7825 1.13378C23.9809 1.31879 25.1307 1.61174 26.232 2.01262C27.3656 2.38264 28.4182 2.8606 29.3899 3.44649C30.3615 4.00152 31.2199 4.64906 31.9649 5.3891L32.1595 10.2919L31.868 10.3841C30.7344 8.04055 29.1149 6.175 27.0096 4.78742C24.9367 3.39981 22.3294 2.70601 19.1876 2.70601C17.4386 2.70601 15.7705 3.06061 14.1835 3.76982C12.5964 4.44822 11.2036 5.41953 10.0052 6.68374C8.83917 7.91717 7.8999 9.41269 7.1874 11.1703C6.47478 12.9279 6.11847 14.8705 6.11847 16.9982C6.11847 19.0949 6.45857 21.0221 7.13877 22.7798C7.85136 24.5374 8.79066 26.0483 9.95667 27.3126C11.155 28.546 12.5478 29.5173 14.1349 30.2265C15.722 30.9049 17.4062 31.244 19.1876 31.244C22.5561 31.244 25.4388 30.6273 27.8356 29.394V20.7446C27.8356 20.3131 27.6575 19.9739 27.3014 19.727C26.9774 19.4806 26.6534 19.28 26.3297 19.1255L26.3741 18.8945C26.5359 18.9227 26.8274 18.9534 27.2487 18.9867C27.6699 19.0149 28.1072 19.0456 28.5604 19.0789H32.7389C33.1276 19.0507 33.5 19.0199 33.8563 18.9867C34.2124 18.9585 34.4877 18.9278 34.682 18.8945L34.7344 19.1259ZM69.9244 1.82725C69.6003 1.98124 69.2764 2.18176 68.9527 2.42882C68.6286 2.67531 68.4506 3.13784 68.4186 3.81639C68.389 4.55644 68.3567 5.49692 68.3217 6.63784C68.3217 7.74793 68.3069 9.01216 68.2773 10.4305C68.2773 11.849 68.2625 13.3908 68.2329 15.0559V20.2362C68.2033 22.2405 67.9441 23.9518 67.4553 25.3703C66.9694 26.7887 66.3216 27.9758 65.5119 28.9317C64.7346 29.8876 63.8601 30.6431 62.8884 31.1981C61.9491 31.7532 61.0098 32.1694 60.0705 32.447C59.1636 32.7555 58.3053 32.9405 57.4956 33.002C56.6858 33.0945 56.0542 33.1407 55.6008 33.1407C53.7546 33.1407 51.9732 32.9095 50.2565 32.447C48.5399 32.0154 47.0338 31.3062 45.7382 30.3193C44.4426 29.3326 43.4062 28.0529 42.6289 26.4803C41.8515 24.9077 41.4628 22.996 41.4628 20.745V15.5184V10.708C41.4628 9.22792 41.448 7.90201 41.4184 6.73031C41.4184 5.52771 41.4036 4.5564 41.374 3.81635C41.3443 3.13796 41.1663 2.67543 40.8398 2.42878C40.5157 2.18228 40.1919 1.98176 39.8682 1.82721L39.9126 1.59623C40.0744 1.62443 40.3336 1.65516 40.6903 1.68841C41.0789 1.71662 41.4676 1.74734 41.8563 1.7806C42.2775 1.7806 42.6824 1.7947 43.0709 1.8229H44.8199C45.2086 1.7947 45.6134 1.7806 46.0345 1.7806C46.4557 1.7524 46.8444 1.72167 47.2005 1.68841C47.5892 1.66021 47.8644 1.62948 48.0261 1.59623L48.0705 1.82721C47.7145 1.9812 47.3744 2.18172 47.0503 2.42878C46.7588 2.67527 46.5968 3.1378 46.5642 3.81635C46.5345 4.5564 46.5023 5.52771 46.4673 6.73031V20.7449C46.4673 24.106 47.2932 26.5882 48.9451 28.1916C50.5969 29.7951 53.0423 30.5968 56.2813 30.5968C57.2205 30.5968 58.2894 30.4888 59.4879 30.2727C60.6863 30.0262 61.8037 29.5329 62.8401 28.7926C63.909 28.0526 64.7997 27.0042 65.5123 25.6475C66.2572 24.2907 66.6297 22.4868 66.6297 20.2359C66.6297 17.7999 66.6149 15.7185 66.5853 13.9918C66.5853 12.2342 66.5705 10.7387 66.5408 9.50522C66.5408 8.24099 66.526 7.16175 66.4964 6.2675C66.4668 5.37331 66.4345 4.55618 66.3995 3.81611C66.3699 3.13772 66.1918 2.67519 65.8654 2.42854C65.5413 2.18204 65.2174 1.98151 64.8937 1.82693L64.9382 1.59599C65.2943 1.65745 65.6991 1.71921 66.1527 1.78128C66.606 1.80948 67.027 1.82358 67.4159 1.82358C67.772 1.82358 68.1769 1.80948 68.6305 1.78128C69.1163 1.71982 69.5374 1.65806 69.8937 1.59599L69.9244 1.82725ZM105.179 10.2915L104.887 10.3837C103.753 8.04021 102.134 6.17468 100.029 4.7871C97.9557 3.3995 95.3484 2.70569 92.2066 2.70569C90.4576 2.70569 88.7895 3.06028 87.2024 3.76946C85.6153 4.44789 84.2226 5.4192 83.0242 6.68342C81.8582 7.91682 80.9189 9.41233 80.2063 11.17C79.4938 12.9276 79.1375 14.8702 79.1375 16.9978C79.1375 19.1254 79.4938 21.068 80.2064 22.8257C80.919 24.5833 81.8583 26.0942 83.0243 27.3584C84.2226 28.5919 85.6154 29.5478 87.2025 30.2262C88.7896 30.9045 90.4576 31.2437 92.2067 31.2437C95.316 31.2437 97.8424 30.7811 99.7858 29.8561C101.761 28.9002 103.43 27.451 104.79 25.5084L105.081 25.6006L104.985 28.5608C104.24 29.3008 103.381 29.9637 102.41 30.5496C101.438 31.1046 100.385 31.5825 99.2515 31.9834C98.1503 32.3535 97.0005 32.631 95.802 32.816C94.6036 33.032 93.4053 33.14 92.2069 33.14C89.7129 33.14 87.3322 32.7546 85.065 31.9837C82.7978 31.2128 80.8058 30.1335 79.0892 28.7459C77.3725 27.3276 76.0122 25.6316 75.0082 23.6582C74.0041 21.6539 73.502 19.4337 73.502 16.9977C73.502 14.5618 74.0041 12.357 75.0082 10.3836C76.0122 8.37929 77.3725 6.66793 79.0892 5.24955C80.8058 3.83111 82.7978 2.75187 85.065 2.01182C87.3323 1.24092 89.7129 0.855469 92.2069 0.855469C93.4053 0.855469 94.6037 0.947974 95.8021 1.13298C97.0005 1.31799 98.1503 1.61094 99.2515 2.01182C100.385 2.38184 101.438 2.8598 102.41 3.44569C103.381 4.00073 104.239 4.64826 104.984 5.3883L105.179 10.2915ZM156.438 32.3542C156.276 32.3259 156.001 32.2952 155.612 32.262C155.256 32.262 154.868 32.2479 154.446 32.2197C154.025 32.2197 153.62 32.2056 153.232 32.1773H150.317C149.928 32.2055 149.54 32.2363 149.151 32.2695C148.795 32.2977 148.52 32.3285 148.325 32.3617L148.281 32.1764C148.605 32.0224 148.929 31.8219 149.252 31.5748C149.577 31.3283 149.755 30.8658 149.787 30.1872C149.816 29.4472 149.831 28.6763 149.831 27.8746C149.861 27.0729 149.875 26.1632 149.875 25.1456V21.6767V17.0052V12.3337V8.81842C149.875 7.80086 149.861 6.90663 149.831 6.13573C149.831 5.33402 149.816 4.56314 149.787 3.8231C149.757 3.1447 149.579 2.68217 149.252 2.43552C148.928 2.158 148.604 1.94224 148.281 1.78822L148.325 1.60297C148.52 1.66443 148.795 1.71068 149.151 1.74173C149.54 1.74173 149.928 1.75583 150.317 1.78403C150.738 1.81223 151.143 1.82633 151.532 1.82633H153.232C153.62 1.79813 154.025 1.78403 154.446 1.78403C154.868 1.75583 155.256 1.7251 155.612 1.69185C156.001 1.66365 156.276 1.63292 156.438 1.59966L156.482 1.78499C156.126 1.93898 155.786 2.15473 155.462 2.43225C155.171 2.67874 155.009 3.14127 154.976 3.81983C154.946 4.55987 154.914 5.33074 154.879 6.13246V27.8713C154.909 28.673 154.941 29.4439 154.976 30.184C155.006 30.8624 155.168 31.3249 155.462 31.5715C155.786 31.818 156.126 32.0186 156.482 32.1731L156.438 32.3542Z" fill="white"/>
</svg>
