<svg width="208" height="34" viewBox="0 0 208 34" fill="none" xmlns="http://www.w3.org/2000/svg">
<path fill-rule="evenodd" clip-rule="evenodd" d="M17.1305 30.4522C9.89187 30.4522 3.71322 23.8867 3.71322 16.7255C3.71322 9.59072 9.76255 2.89479 17.0786 2.89479C21.8877 2.89479 25.3506 5.22146 28.1692 8.86674H31.7106C30.6506 6.95346 29.5132 5.19603 27.7812 3.82545C24.8079 1.42142 20.956 0 17.1305 0C7.95317 0 0.482422 7.57464 0.482422 16.7C0.482422 25.8508 8.05707 33.3481 17.1824 33.3481C20.9051 33.3481 24.5504 31.9786 27.4717 29.6774C29.3076 28.204 30.5997 26.2907 31.841 24.3255H28.2996C25.5065 27.9708 21.9397 30.4522 17.1305 30.4522ZM53.8398 13.0028C51.6171 10.1334 48.5919 8.32404 44.8438 8.32404C38.1224 8.32404 32.5904 13.7798 32.5904 20.5012C32.5904 27.2214 38.1489 32.728 44.8438 32.728C48.7477 32.728 51.4612 31.0988 53.8398 28.1001V32.1842H56.7612V8.89216H53.8398V13.0028ZM44.689 30.0388C39.5438 30.0388 35.4852 25.5668 35.4852 20.5266C35.4852 15.5107 39.5184 11.0132 44.689 11.0132C49.8331 11.0132 53.8398 15.5118 53.8398 20.5266C53.8398 25.5668 49.8066 30.0388 44.689 30.0388ZM60.3025 32.1842H63.4317V0.670921H60.3025V32.1842ZM75.2451 28.487L67.3345 8.89216H64.2319L73.7198 32.1842H76.8732L86.3358 8.89216H83.2851L75.2451 28.487ZM87.6279 32.1842H90.7559V8.89216H87.6279V32.1842ZM87.6279 5.89348H90.7559V0.670921H87.6279V5.89348ZM104.225 8.32293C101.277 8.32293 99.1838 9.87478 97.2451 11.9428V8.89216H94.3492V32.1842H97.4253V17.991C97.3998 14.2429 100.501 11.0121 104.276 11.0121C109.006 11.0121 111.384 15.1228 111.384 19.3627V32.1853H114.279V19.3627C114.28 13.3134 110.74 8.32293 104.225 8.32293ZM143.312 0.670921L129.093 18.7415V0.670921H126.017V32.1842H129.093V23.5242L133.127 18.5094L143.389 32.1842H147.294L135.091 16.0269L147.294 0.670921H143.312ZM148.431 32.1842H151.482V0.670921H148.431V32.1842ZM176.738 14.7602C174.619 10.8043 170.379 8.32293 165.905 8.32293C159.237 8.32293 153.6 13.8815 153.6 20.5509C153.6 27.2711 159.288 32.7269 165.96 32.7269C169.137 32.7269 172.268 31.4602 174.567 29.2629C175.964 27.9443 176.79 26.2896 177.539 24.5576H174.257C172.601 27.7895 169.68 30.0377 165.904 30.0377C163.605 30.0377 161.356 29.107 159.651 27.5298C157.891 25.9282 157.116 23.9619 156.779 21.6363H178.264C178.265 19.2068 177.928 16.8802 176.738 14.7602ZM156.884 18.9482C157.817 14.5801 161.253 11.0121 165.96 11.0121C169.914 11.0121 174.154 13.4427 175.085 18.9482H156.884ZM180.54 32.1842H183.615V8.89216H180.54V32.1842ZM180.54 5.99738H183.615V0.670921H180.54V5.99738ZM197.137 8.32293C194.136 8.32293 192.043 9.87478 190.077 11.9428V8.89216H187.131V32.1842H190.233V17.991C190.208 14.2175 193.388 11.0121 197.187 11.0121C201.893 11.0121 204.375 15.1228 204.375 19.3627V32.1853H207.27V19.3627C207.27 13.3134 203.676 8.32293 197.137 8.32293Z" fill="white"/>
</svg>
