<svg width="195" height="32" viewBox="0 0 195 32" fill="none" xmlns="http://www.w3.org/2000/svg">
<path fill-rule="evenodd" clip-rule="evenodd" d="M0.482422 0.901872L3.41459 4.2086V28.4108L1.2414 31.5775L14.5508 31.5979L12.1519 28.684L11.9028 19.968L24.736 20.0376C28.6258 18.7426 32.6245 15.9816 32.8166 10.3997C32.7552 4.99044 29.4527 1.52099 25.6184 0.830727L0.482422 0.901872ZM11.4273 2.44965V17.9979L21.2735 18.069C23.5139 16.2624 25.2123 14.8788 25.1443 10.5413C25.1122 7.00445 24.3656 3.92024 21.0697 2.45041L11.4273 2.44965ZM38.9761 0.725524L41.9082 4.03301V28.2352L39.735 31.4034L53.0437 31.4223L50.6448 28.5084L50.3957 19.7924H50.4491L64.199 31.5207L75.6099 31.4276L65.1954 22.4194H56.5011L53.4367 19.809L63.2289 19.862C67.1187 18.567 71.1167 15.806 71.3095 10.2241C71.2489 4.8156 67.9464 1.34539 64.1113 0.655892L38.9761 0.725524ZM49.9202 2.27331V17.8215L59.7664 17.8927C62.0075 16.086 63.7052 14.7025 63.6372 10.3642C63.6051 6.8281 62.8585 3.74313 59.5626 2.27331H49.9202ZM86.5956 0.690708H98.0716L113.01 28.4108C113.656 30.5512 115.59 30.287 116.881 31.2255H102.417L104.59 30.5459L104.455 28.4819L100.72 22.5012L88.0215 22.5723L85.3056 28.3419C85.215 28.9981 84.513 29.4961 85.0339 30.3112L86.0529 31.2959L79.8058 31.1551L82.5225 30.3112L92.7748 8.71193V7.23378L88.443 1.45514L86.5956 0.690708ZM88.8243 20.5977L94.0984 10.6124L99.5895 20.5417L88.8243 20.5977ZM164.197 0.751257H175.672L190.612 28.4713C191.258 30.6117 193.192 30.3476 194.482 31.2861H180.018L182.191 30.6049L182.055 28.5409L178.321 22.5617L165.623 22.6329L162.907 28.4009C162.816 29.0586 162.115 29.5567 162.635 30.3718L163.654 31.3565L157.407 31.2157L160.124 30.3718L170.376 8.77248V7.29357L166.045 1.51569L164.197 0.751257ZM166.426 20.659L171.7 10.6737L177.192 20.6015L166.426 20.659ZM120.85 0.402344L141.293 0.515116C147.876 2.05684 152.065 6.07881 153.363 13.0949L153.309 18.567C152.108 24.8187 148.176 29.1321 141.239 31.3156L120.741 31.3731L120.738 30.7109C123.854 30.4755 124.103 30.1198 124.111 28.27V3.33518C124.076 1.96753 123.803 1.11606 120.795 1.02221L120.85 0.402344ZM132.47 2.53594L132.45 29.5135C135.147 29.5226 137.486 29.7754 138.807 29.101C141.801 27.7334 143.192 25.6331 143.319 23.6599L143.248 7.73028C143.248 5.18192 140.483 3.38286 138.886 2.91437C137.744 2.49128 135.466 2.47387 132.47 2.53594Z" fill="white" stroke="white" stroke-width="1.02419" stroke-miterlimit="2.613"/>
</svg>
