<svg width="92" height="38" viewBox="0 0 92 38" fill="none" xmlns="http://www.w3.org/2000/svg">
<path d="M86.8148 36.8682L73.3326 0.0321946L73.3234 0.0078125H73.0573L70.281 7.57747L65.2266 21.3582L65.2147 21.3473C63.463 19.8134 60.9915 18.8546 57.8789 18.4975L56.9296 18.4002L57.8714 18.2804C63.0043 17.3651 66.4547 14.1481 66.4547 10.2722C66.4547 4.95729 61.4172 1.24751 54.2014 1.24751H39.1876V1.51661H43.5502V28.9799L32.9551 0.0321043L32.9456 0.0078125H32.6795L29.9031 7.57747L19.1948 36.7734L19.1289 36.7809C18.9459 36.8033 18.7649 36.8211 18.5858 36.8346C18.3164 36.8555 18.0486 36.8681 17.78 36.8681H6.96007L27.5273 1.51652L27.6801 1.25085H2.52564V12.1867H2.79255C2.83987 6.86 5.9659 1.51652 12.8726 1.51652H21.205L0.482422 37.1329H28.3998V26.6557H28.1329C28.0965 31.2984 25.4444 35.7081 19.6771 36.7038L19.4938 36.7349L23.886 24.7547H36.1899L40.6234 36.8682H36.25V37.133H53.4158V36.8682H49.0236V18.5956H54.0915C59.2489 18.5956 62.2069 20.8821 62.2069 24.8668V28.1081C62.2069 28.4653 62.2314 28.9874 62.2584 29.4241V29.44L59.5344 36.8665H55.9759V37.1313H63.342V36.8665H59.8217L62.3024 30.1039C62.3075 30.1693 62.31 30.2087 62.31 30.2087L62.3784 30.8181L62.4443 31.2212C62.8582 33.7148 63.8193 35.5479 65.3001 36.6694L65.5129 36.8228C66.638 37.599 68.0359 37.9921 69.6703 37.9921C71.8352 37.9921 73.2786 37.4565 74.4704 36.1959L74.3142 36.05C73.2161 37.0558 72.2946 37.4633 71.14 37.4633C69.1728 37.4633 68.1432 35.0953 68.1432 32.7601V28.2188C68.1537 27.0919 67.9758 25.9712 67.6169 24.9021L67.568 24.7613V24.7562H76.5675L81.001 36.8698H76.6276V37.1347H91.4824V36.8698L86.8148 36.8682ZM23.9839 24.4897L30.0451 7.96479L36.0928 24.4897H23.9839ZM49.0262 18.3298V1.51652H52.8946C58.0622 1.51652 60.7904 4.56501 60.7904 10.3293C60.7904 16.4598 59.2244 18.3298 54.0915 18.3298H49.0262ZM67.4632 24.4897L67.4369 24.4244C67.037 23.4577 66.4547 22.5758 65.7214 21.8259L65.4681 21.5744L65.441 21.5493L70.4194 7.96479L76.4671 24.4897H67.4632Z" fill="white"/>
</svg>
